<svg width="28" height="24" viewBox="0 0 28 24" fill="none" xmlns="http://www.w3.org/2000/svg">
<g id="carbon:location-filled">
<path id="Vector" d="M13.5349 1.5C11.0678 1.50258 8.70272 2.3726 6.95828 3.91922C5.21384 5.46584 4.23253 7.56276 4.22962 9.75C4.22667 11.5374 4.8852 13.2763 6.10421 14.7C6.10421 14.7 6.35798 14.9963 6.39944 15.039L13.5349 22.5L20.6737 15.0353C20.7109 14.9955 20.9655 14.7 20.9655 14.7L20.9664 14.6978C22.1848 13.2747 22.843 11.5366 22.8401 9.75C22.8372 7.56276 21.8559 5.46584 20.1114 3.91922C18.367 2.3726 16.0019 1.50258 13.5349 1.5ZM13.5349 12.75C12.8656 12.75 12.2114 12.5741 11.655 12.2444C11.0985 11.9148 10.6648 11.4462 10.4087 10.8981C10.1526 10.3499 10.0856 9.74667 10.2162 9.16473C10.3467 8.58279 10.669 8.04824 11.1422 7.62868C11.6154 7.20912 12.2183 6.9234 12.8747 6.80764C13.5311 6.69189 14.2115 6.7513 14.8298 6.97836C15.448 7.20542 15.9765 7.58994 16.3483 8.08329C16.7201 8.57664 16.9186 9.15666 16.9186 9.75C16.9175 10.5453 16.5606 11.3078 15.9263 11.8702C15.2919 12.4326 14.4319 12.749 13.5349 12.75Z" fill="black"/>
</g>
</svg>
