<svg width="29" height="24" viewBox="0 0 29 24" fill="none" xmlns="http://www.w3.org/2000/svg">
<g id="mdi:contact">
<path id="Vector" d="M7.75579 17C7.75579 15 12.2674 13.9 14.5232 13.9C16.779 13.9 21.2907 15 21.2907 17V18H7.75579M17.907 9C17.907 9.79565 17.5505 10.5587 16.9159 11.1213C16.2813 11.6839 15.4207 12 14.5232 12C13.6258 12 12.7652 11.6839 12.1306 11.1213C11.496 10.5587 11.1395 9.79565 11.1395 9C11.1395 8.20435 11.496 7.44129 12.1306 6.87868C12.7652 6.31607 13.6258 6 14.5232 6C15.4207 6 16.2813 6.31607 16.9159 6.87868C17.5505 7.44129 17.907 8.20435 17.907 9ZM4.37207 5V19C4.37207 19.5304 4.60974 20.0391 5.03278 20.4142C5.45583 20.7893 6.02961 21 6.62788 21H22.4186C23.0169 21 23.5906 20.7893 24.0137 20.4142C24.4367 20.0391 24.6744 19.5304 24.6744 19V5C24.6744 4.46957 24.4367 3.96086 24.0137 3.58579C23.5906 3.21071 23.0169 3 22.4186 3H6.62788C6.02961 3 5.45583 3.21071 5.03278 3.58579C4.60974 3.96086 4.37207 4.46957 4.37207 5Z" fill="black"/>
</g>
</svg>
